<?xml version="1.0" encoding="UTF-8"?>
<svg xmlns="http://www.w3.org/2000/svg" xmlns:xlink="http://www.w3.org/1999/xlink" width="30px" height="10px" viewBox="0 0 30 10" version="1.1">
<g id="surface1">
<path style=" stroke:none;fill-rule:nonzero;fill:rgb(0%,0%,0%);fill-opacity:1;" d="M 23.296875 3.398438 L 22.441406 4.25 C 22.476562 4.421875 22.496094 4.605469 22.496094 4.804688 C 22.496094 5.882812 21.988281 6.527344 21.140625 6.527344 C 20.785156 6.527344 20.488281 6.414062 20.261719 6.199219 L 23.214844 3.246094 C 23.105469 3.050781 22.972656 2.871094 22.8125 2.710938 L 22.792969 2.695312 L 22.753906 2.65625 C 22.324219 2.257812 21.773438 2.046875 21.140625 2.046875 C 20.410156 2.046875 19.789062 2.324219 19.339844 2.855469 C 18.921875 3.355469 18.6875 4.046875 18.6875 4.804688 C 18.6875 5.3125 18.792969 5.785156 18.984375 6.191406 L 19.839844 5.335938 C 19.808594 5.164062 19.792969 4.984375 19.796875 4.804688 C 19.796875 4.3125 19.894531 3.910156 20.09375 3.613281 C 20.328125 3.269531 20.6875 3.085938 21.140625 3.085938 C 21.492188 3.085938 21.785156 3.195312 22.007812 3.402344 L 19.0625 6.347656 C 19.140625 6.496094 19.234375 6.632812 19.339844 6.757812 C 19.359375 6.78125 19.382812 6.804688 19.40625 6.828125 C 19.429688 6.855469 19.457031 6.882812 19.484375 6.910156 L 19.519531 6.945312 C 19.949219 7.351562 20.503906 7.566406 21.140625 7.566406 C 21.871094 7.566406 22.496094 7.289062 22.945312 6.757812 C 23.367188 6.257812 23.601562 5.566406 23.601562 4.804688 C 23.601562 4.296875 23.496094 3.8125 23.296875 3.398438 "/>
<path style=" stroke:none;fill-rule:nonzero;fill:rgb(0%,0%,0%);fill-opacity:1;" d="M 3.863281 7.199219 L 2.964844 5.445312 L 2.179688 5.445312 L 2.179688 7.199219 L 1.191406 7.199219 L 1.191406 2.402344 L 2.976562 2.402344 C 3.539062 2.402344 3.976562 2.527344 4.285156 2.777344 C 4.59375 3.03125 4.75 3.390625 4.75 3.855469 C 4.75 4.175781 4.675781 4.449219 4.527344 4.671875 C 4.386719 4.886719 4.171875 5.058594 3.882812 5.195312 L 4.929688 7.148438 L 4.929688 7.199219 Z M 2.179688 3.199219 L 2.179688 4.640625 L 2.976562 4.640625 C 3.222656 4.640625 3.414062 4.578125 3.550781 4.449219 C 3.683594 4.328125 3.75 4.152344 3.75 3.925781 C 3.75 3.703125 3.6875 3.523438 3.558594 3.390625 C 3.433594 3.261719 3.238281 3.199219 2.976562 3.199219 Z M 8.527344 7.199219 L 8.195312 6.210938 L 6.464844 6.210938 L 6.140625 7.199219 L 5.082031 7.199219 L 6.875 2.402344 L 7.792969 2.402344 L 9.585938 7.199219 Z M 7.332031 3.613281 L 6.734375 5.40625 L 7.933594 5.40625 Z M 11.898438 7.199219 L 10.035156 7.199219 L 10.035156 2.402344 L 11.707031 2.402344 C 12.292969 2.402344 12.734375 2.515625 13.039062 2.734375 C 13.339844 2.957031 13.492188 3.28125 13.492188 3.714844 C 13.492188 3.949219 13.429688 4.15625 13.308594 4.339844 C 13.1875 4.519531 13.019531 4.648438 12.804688 4.730469 C 13.046875 4.792969 13.238281 4.914062 13.378906 5.105469 C 13.527344 5.292969 13.601562 5.519531 13.601562 5.789062 C 13.601562 6.253906 13.453125 6.601562 13.160156 6.835938 C 12.863281 7.070312 12.445312 7.191406 11.898438 7.199219 Z M 11.929688 5.113281 L 11.023438 5.113281 L 11.023438 6.402344 L 11.871094 6.402344 C 12.097656 6.402344 12.277344 6.351562 12.414062 6.242188 C 12.539062 6.128906 12.605469 5.972656 12.605469 5.777344 C 12.605469 5.34375 12.378906 5.121094 11.929688 5.113281 Z M 11.023438 3.199219 L 11.023438 4.410156 L 11.75 4.410156 C 12.253906 4.402344 12.503906 4.203125 12.503906 3.8125 C 12.503906 3.597656 12.441406 3.441406 12.3125 3.339844 C 12.183594 3.246094 11.984375 3.199219 11.707031 3.199219 Z M 16.828125 5.941406 C 16.828125 5.75 16.761719 5.609375 16.628906 5.507812 C 16.492188 5.40625 16.253906 5.300781 15.910156 5.195312 C 15.570312 5.082031 15.296875 4.96875 15.097656 4.863281 C 14.550781 4.574219 14.28125 4.175781 14.28125 3.671875 C 14.28125 3.417969 14.351562 3.1875 14.5 2.976562 C 14.648438 2.777344 14.859375 2.617188 15.136719 2.503906 C 15.402344 2.390625 15.710938 2.332031 16.054688 2.332031 C 16.394531 2.332031 16.699219 2.394531 16.96875 2.523438 C 17.238281 2.644531 17.445312 2.820312 17.59375 3.046875 C 17.742188 3.269531 17.816406 3.523438 17.816406 3.8125 L 16.828125 3.8125 C 16.828125 3.597656 16.757812 3.429688 16.617188 3.300781 C 16.480469 3.179688 16.289062 3.117188 16.03125 3.117188 C 15.789062 3.117188 15.601562 3.171875 15.46875 3.28125 C 15.332031 3.378906 15.265625 3.515625 15.265625 3.683594 C 15.265625 3.835938 15.347656 3.96875 15.507812 4.074219 C 15.664062 4.175781 15.894531 4.273438 16.203125 4.367188 C 16.761719 4.535156 17.171875 4.742188 17.433594 4.992188 C 17.6875 5.246094 17.816406 5.558594 17.816406 5.929688 C 17.816406 6.347656 17.65625 6.671875 17.34375 6.90625 C 17.027344 7.148438 16.601562 7.269531 16.074219 7.269531 C 15.703125 7.269531 15.367188 7.199219 15.066406 7.058594 C 14.761719 6.925781 14.53125 6.738281 14.371094 6.503906 C 14.214844 6.269531 14.136719 5.996094 14.136719 5.6875 L 15.125 5.6875 C 15.125 6.21875 15.441406 6.484375 16.074219 6.484375 C 16.308594 6.484375 16.492188 6.4375 16.628906 6.34375 C 16.761719 6.25 16.828125 6.113281 16.828125 5.941406 Z M 16.828125 5.941406 "/>
<path style=" stroke:none;fill-rule:nonzero;fill:rgb(0%,0%,0%);fill-opacity:1;" d="M 28.457031 2.628906 L 28.457031 7.425781 L 27.472656 7.425781 L 25.546875 4.273438 L 25.546875 7.425781 L 24.558594 7.425781 L 24.558594 2.628906 L 25.546875 2.628906 L 27.472656 5.792969 L 27.472656 2.628906 Z M 28.457031 2.628906 "/>
</g>
</svg>
