<?xml version="1.0" encoding="UTF-8"?>
<svg xmlns="http://www.w3.org/2000/svg" xmlns:xlink="http://www.w3.org/1999/xlink" width="100px" height="33px" viewBox="0 0 99 33" version="1.1">
<g id="surface1">
<path style=" stroke:none;fill-rule:nonzero;fill:rgb(0%,0%,0%);fill-opacity:1;" d="M 76.882812 11.21875 L 74.0625 14.03125 C 74.179688 14.589844 74.242188 15.195312 74.242188 15.859375 C 74.242188 19.417969 72.5625 21.542969 69.761719 21.542969 C 68.597656 21.542969 67.613281 21.171875 66.871094 20.460938 L 76.613281 10.71875 C 76.253906 10.0625 75.8125 9.476562 75.285156 8.953125 L 75.21875 8.890625 L 75.082031 8.769531 C 73.667969 7.445312 71.851562 6.75 69.761719 6.75 C 67.355469 6.75 65.304688 7.675781 63.828125 9.425781 C 62.4375 11.078125 61.667969 13.359375 61.667969 15.859375 C 61.667969 17.527344 62.011719 19.089844 62.648438 20.4375 L 65.46875 17.613281 C 65.371094 17.035156 65.320312 16.445312 65.324219 15.859375 C 65.324219 14.230469 65.65625 12.902344 66.3125 11.925781 C 67.082031 10.785156 68.273438 10.1875 69.761719 10.1875 C 70.921875 10.1875 71.890625 10.546875 72.625 11.222656 L 62.898438 20.949219 C 63.167969 21.429688 63.476562 21.882812 63.828125 22.296875 C 63.890625 22.378906 63.96875 22.457031 64.042969 22.539062 C 64.125 22.628906 64.210938 22.71875 64.300781 22.796875 L 64.328125 22.835938 L 64.410156 22.921875 L 64.417969 22.914062 C 65.824219 24.265625 67.660156 24.972656 69.761719 24.972656 C 72.179688 24.972656 74.242188 24.046875 75.714844 22.296875 C 77.117188 20.644531 77.890625 18.367188 77.890625 15.859375 C 77.890625 14.175781 77.535156 12.578125 76.882812 11.21875 "/>
<path style=" stroke:none;fill-rule:nonzero;fill:rgb(0%,0%,0%);fill-opacity:1;" d="M 12.746094 23.757812 L 9.785156 17.972656 L 7.191406 17.972656 L 7.191406 23.757812 L 3.933594 23.757812 L 3.933594 7.929688 L 9.820312 7.929688 C 11.679688 7.929688 13.121094 8.339844 14.140625 9.160156 C 15.164062 10.003906 15.671875 11.191406 15.671875 12.71875 C 15.671875 13.785156 15.429688 14.679688 14.9375 15.414062 C 14.472656 16.121094 13.765625 16.699219 12.8125 17.140625 L 16.269531 23.59375 L 16.269531 23.757812 Z M 7.191406 10.558594 L 7.191406 15.3125 L 9.820312 15.3125 C 10.640625 15.3125 11.273438 15.101562 11.714844 14.679688 C 12.15625 14.28125 12.378906 13.707031 12.378906 12.953125 C 12.378906 12.21875 12.167969 11.632812 11.746094 11.191406 C 11.324219 10.769531 10.683594 10.558594 9.820312 10.558594 Z M 28.148438 23.757812 L 27.050781 20.5 L 21.332031 20.5 L 20.265625 23.757812 L 16.773438 23.757812 L 22.695312 7.929688 L 25.71875 7.929688 L 31.636719 23.757812 Z M 24.191406 11.921875 L 22.226562 17.839844 L 26.183594 17.839844 Z M 39.269531 23.757812 L 33.117188 23.757812 L 33.117188 7.929688 L 38.636719 7.929688 C 40.566406 7.929688 42.027344 8.296875 43.027344 9.027344 C 44.023438 9.761719 44.523438 10.835938 44.523438 12.253906 C 44.523438 13.027344 44.324219 13.71875 43.925781 14.316406 C 43.523438 14.914062 42.96875 15.347656 42.261719 15.613281 C 43.058594 15.8125 43.691406 16.21875 44.15625 16.84375 C 44.640625 17.464844 44.886719 18.214844 44.886719 19.101562 C 44.886719 20.632812 44.398438 21.785156 43.425781 22.5625 C 42.449219 23.335938 41.0625 23.734375 39.269531 23.757812 Z M 39.367188 16.875 L 36.375 16.875 L 36.375 21.132812 L 39.167969 21.132812 C 39.921875 21.132812 40.519531 20.957031 40.964844 20.601562 C 41.382812 20.222656 41.597656 19.710938 41.597656 19.070312 C 41.597656 17.628906 40.851562 16.898438 39.367188 16.875 Z M 36.375 10.558594 L 36.375 14.546875 L 38.769531 14.546875 C 40.433594 14.523438 41.265625 13.875 41.265625 12.585938 C 41.265625 11.878906 41.050781 11.355469 40.632812 11.023438 C 40.210938 10.714844 39.542969 10.558594 38.636719 10.558594 Z M 55.535156 19.601562 C 55.535156 18.980469 55.3125 18.503906 54.871094 18.171875 C 54.425781 17.839844 53.640625 17.496094 52.507812 17.140625 C 51.378906 16.765625 50.480469 16.398438 49.816406 16.042969 C 48.019531 15.089844 47.121094 13.785156 47.121094 12.121094 C 47.121094 11.28125 47.367188 10.515625 47.855469 9.828125 C 48.339844 9.160156 49.039062 8.640625 49.949219 8.265625 C 50.832031 7.886719 51.84375 7.699219 52.976562 7.699219 C 54.105469 7.699219 55.113281 7.90625 56 8.332031 C 56.886719 8.730469 57.574219 9.304688 58.0625 10.058594 C 58.546875 10.789062 58.792969 11.632812 58.792969 12.585938 L 55.535156 12.585938 C 55.535156 11.878906 55.300781 11.3125 54.835938 10.890625 C 54.390625 10.492188 53.75 10.292969 52.90625 10.292969 C 52.109375 10.292969 51.488281 10.46875 51.046875 10.824219 C 50.601562 11.15625 50.382812 11.597656 50.382812 12.152344 C 50.382812 12.664062 50.648438 13.09375 51.179688 13.449219 C 51.6875 13.785156 52.453125 14.105469 53.472656 14.414062 C 55.3125 14.96875 56.664062 15.65625 57.53125 16.476562 C 58.371094 17.316406 58.792969 18.347656 58.792969 19.570312 C 58.792969 20.941406 58.269531 22.019531 57.230469 22.792969 C 56.1875 23.59375 54.789062 23.992188 53.042969 23.992188 C 51.820312 23.992188 50.714844 23.757812 49.714844 23.292969 C 48.71875 22.851562 47.953125 22.238281 47.421875 21.464844 C 46.910156 20.691406 46.65625 19.792969 46.65625 18.769531 L 49.914062 18.769531 C 49.914062 20.523438 50.957031 21.398438 53.042969 21.398438 C 53.816406 21.398438 54.425781 21.242188 54.871094 20.933594 C 55.3125 20.625 55.535156 20.175781 55.535156 19.601562 Z M 55.535156 19.601562 "/>
<path style=" stroke:none;fill-rule:nonzero;fill:rgb(0%,0%,0%);fill-opacity:1;" d="M 93.914062 8.675781 L 93.914062 24.503906 L 90.652344 24.503906 L 84.304688 14.097656 L 84.304688 24.503906 L 81.042969 24.503906 L 81.042969 8.675781 L 84.304688 8.675781 L 90.652344 19.117188 L 90.652344 8.675781 Z M 93.914062 8.675781 "/>
</g>
</svg>
